<svg width="35" height="35" viewBox="0 0 35 35" fill="none" xmlns="http://www.w3.org/2000/svg">
<path d="M30.7476 4.25216C27.9203 1.42277 24.1883 -0.00211678 20.483 2.36025e-06C16.7767 -0.00211678 13.0458 1.42277 10.2184 4.25216C7.38903 7.0795 5.96306 10.8114 5.96736 14.5157C5.96415 17.1037 6.6755 19.695 8.05554 21.9914L1.02621 29.0207C-0.34207 30.389 -0.34207 32.6063 1.02621 33.9746C2.3934 35.3429 4.61187 35.3429 5.97905 33.9746L13.0094 26.9443C15.3048 28.3253 17.8971 29.0357 20.483 29.0324C24.1883 29.0357 27.9203 27.6108 30.7476 24.7813C33.5759 21.954 35.0018 18.223 34.9987 14.5156C35.003 10.8114 33.576 7.0795 30.7476 4.25216ZM26.7838 20.8186C25.0374 22.5639 22.773 23.4248 20.483 23.4292C18.193 23.4248 15.9296 22.564 14.1811 20.8186C12.4358 19.0702 11.5749 16.8068 11.5706 14.5157C11.5749 12.2268 12.4357 9.96236 14.1811 8.21489C15.9296 6.4696 18.193 5.60868 20.483 5.60438C22.773 5.60868 25.0374 6.46953 26.7849 8.21489C28.5302 9.96236 29.3911 12.2268 29.3954 14.5157C29.3911 16.8068 28.5302 19.0702 26.7838 20.8186Z" fill="black"/>
</svg>
