<svg width="369" height="39" viewBox="0 0 369 39" fill="none" xmlns="http://www.w3.org/2000/svg">
<rect x="242" width="16" height="16" fill="black"/>
<rect x="63" width="16" height="16" fill="black"/>
<rect x="0.5" y="5.5" width="368" height="5" stroke="black"/>
<rect x="77" y="5" width="175" height="6" fill="black"/>
<path d="M58.518 36V35.048L62.508 31.198C62.8627 30.862 63.124 30.568 63.292 30.316C63.4693 30.0547 63.586 29.8167 63.642 29.602C63.7073 29.378 63.74 29.1633 63.74 28.958C63.74 28.454 63.5627 28.0573 63.208 27.768C62.8533 27.4787 62.3353 27.334 61.654 27.334C61.1313 27.334 60.66 27.4227 60.24 27.6C59.82 27.768 59.456 28.034 59.148 28.398L58.196 27.572C58.5693 27.096 59.0687 26.732 59.694 26.48C60.3287 26.2187 61.024 26.088 61.78 26.088C62.4613 26.088 63.054 26.2 63.558 26.424C64.062 26.6387 64.4493 26.9513 64.72 27.362C65 27.7727 65.14 28.258 65.14 28.818C65.14 29.1353 65.098 29.448 65.014 29.756C64.93 30.064 64.7713 30.3907 64.538 30.736C64.3047 31.0813 63.9687 31.4687 63.53 31.898L59.974 35.328L59.638 34.782H65.56V36H58.518ZM70.7014 36.112C69.9361 36.112 69.2501 35.916 68.6434 35.524C68.0461 35.132 67.5701 34.5627 67.2154 33.816C66.8701 33.0693 66.6974 32.164 66.6974 31.1C66.6974 30.036 66.8701 29.1307 67.2154 28.384C67.5701 27.6373 68.0461 27.068 68.6434 26.676C69.2501 26.284 69.9361 26.088 70.7014 26.088C71.4574 26.088 72.1387 26.284 72.7454 26.676C73.3521 27.068 73.8281 27.6373 74.1734 28.384C74.5187 29.1307 74.6914 30.036 74.6914 31.1C74.6914 32.164 74.5187 33.0693 74.1734 33.816C73.8281 34.5627 73.3521 35.132 72.7454 35.524C72.1387 35.916 71.4574 36.112 70.7014 36.112ZM70.7014 34.866C71.2147 34.866 71.6627 34.726 72.0454 34.446C72.4374 34.166 72.7407 33.746 72.9554 33.186C73.1794 32.626 73.2914 31.9307 73.2914 31.1C73.2914 30.2693 73.1794 29.574 72.9554 29.014C72.7407 28.454 72.4374 28.034 72.0454 27.754C71.6627 27.474 71.2147 27.334 70.7014 27.334C70.1881 27.334 69.7354 27.474 69.3434 27.754C68.9514 28.034 68.6434 28.454 68.4194 29.014C68.2047 29.574 68.0974 30.2693 68.0974 31.1C68.0974 31.9307 68.2047 32.626 68.4194 33.186C68.6434 33.746 68.9514 34.166 69.3434 34.446C69.7354 34.726 70.1881 34.866 70.7014 34.866ZM77.7293 34.208L77.7573 32.486L82.0273 28.58H83.6513L80.3753 31.8L79.6473 32.416L77.7293 34.208ZM76.6373 36V25.612H77.9813V36H76.6373ZM82.3073 36L79.3953 32.388L80.2633 31.31L83.9593 36H82.3073Z" fill="black"/>
<path d="M240.836 36.112C240.145 36.112 239.473 36.0047 238.82 35.79C238.176 35.5753 237.649 35.286 237.238 34.922L237.882 33.816C238.209 34.124 238.633 34.376 239.156 34.572C239.679 34.768 240.234 34.866 240.822 34.866C241.569 34.866 242.143 34.7073 242.544 34.39C242.945 34.0727 243.146 33.648 243.146 33.116C243.146 32.752 243.057 32.4347 242.88 32.164C242.703 31.8933 242.395 31.688 241.956 31.548C241.527 31.3987 240.934 31.324 240.178 31.324H237.952L238.47 26.2H244V27.418H238.988L239.716 26.732L239.31 30.778L238.582 30.106H240.472C241.452 30.106 242.241 30.232 242.838 30.484C243.435 30.736 243.869 31.086 244.14 31.534C244.411 31.9727 244.546 32.4813 244.546 33.06C244.546 33.62 244.411 34.1333 244.14 34.6C243.869 35.0573 243.459 35.426 242.908 35.706C242.367 35.9767 241.676 36.112 240.836 36.112ZM249.715 36.112C248.95 36.112 248.264 35.916 247.657 35.524C247.06 35.132 246.584 34.5627 246.229 33.816C245.884 33.0693 245.711 32.164 245.711 31.1C245.711 30.036 245.884 29.1307 246.229 28.384C246.584 27.6373 247.06 27.068 247.657 26.676C248.264 26.284 248.95 26.088 249.715 26.088C250.471 26.088 251.152 26.284 251.759 26.676C252.366 27.068 252.842 27.6373 253.187 28.384C253.532 29.1307 253.705 30.036 253.705 31.1C253.705 32.164 253.532 33.0693 253.187 33.816C252.842 34.5627 252.366 35.132 251.759 35.524C251.152 35.916 250.471 36.112 249.715 36.112ZM249.715 34.866C250.228 34.866 250.676 34.726 251.059 34.446C251.451 34.166 251.754 33.746 251.969 33.186C252.193 32.626 252.305 31.9307 252.305 31.1C252.305 30.2693 252.193 29.574 251.969 29.014C251.754 28.454 251.451 28.034 251.059 27.754C250.676 27.474 250.228 27.334 249.715 27.334C249.202 27.334 248.749 27.474 248.357 27.754C247.965 28.034 247.657 28.454 247.433 29.014C247.218 29.574 247.111 30.2693 247.111 31.1C247.111 31.9307 247.218 32.626 247.433 33.186C247.657 33.746 247.965 34.166 248.357 34.446C248.749 34.726 249.202 34.866 249.715 34.866ZM256.743 34.208L256.771 32.486L261.041 28.58H262.665L259.389 31.8L258.661 32.416L256.743 34.208ZM255.651 36V25.612H256.995V36H255.651ZM261.321 36L258.409 32.388L259.277 31.31L262.973 36H261.321Z" fill="black"/>
</svg>
